<svg width="497" height="620" viewBox="0 0 497 620" fill="none" xmlns="http://www.w3.org/2000/svg">
<path d="M345.27 299.988C323.85 299.988 306.42 317.418 306.42 338.848C306.42 344.598 311.1 349.288 316.86 349.288C322.62 349.288 327.29 344.608 327.29 338.848C327.29 328.928 335.36 320.858 345.28 320.858C355.2 320.858 363.27 328.928 363.27 338.848C363.27 344.598 367.95 349.288 373.71 349.288C379.47 349.288 384.15 344.608 384.15 338.848C384.15 317.428 366.72 299.988 345.29 299.988H345.27Z" fill="#00C84F"/>
<path d="M284.66 379.289C287.52 379.289 289.75 381.799 289.38 384.639C286.76 404.589 269.69 419.999 249.02 419.999C228.35 419.999 211.28 404.599 208.66 384.639C208.29 381.809 210.52 379.289 213.38 379.289H284.65H284.66Z" fill="#00C84F"/>
<path d="M152.77 363.969C174.492 363.969 192.1 346.36 192.1 324.639C192.1 302.917 174.492 285.309 152.77 285.309C131.049 285.309 113.44 302.917 113.44 324.639C113.44 346.36 131.049 363.969 152.77 363.969Z" fill="#00C84F"/>
<path d="M352.53 497.791H145.53C85.1703 497.791 36.0703 448.691 36.0703 388.331V293.491C36.0703 233.131 85.1703 184.031 145.53 184.031H171.12C177.68 184.031 182.99 189.351 182.99 195.901C182.99 202.451 177.67 207.771 171.12 207.771H145.53C98.2703 207.771 59.8103 246.221 59.8103 293.491V388.331C59.8103 435.591 98.2603 474.051 145.53 474.051H352.53C399.79 474.051 438.25 435.601 438.25 388.331V293.491C438.25 246.231 399.8 207.771 352.53 207.771H325.46C318.9 207.771 313.59 202.451 313.59 195.901C313.59 189.351 318.91 184.031 325.46 184.031H352.53C412.89 184.031 461.99 233.131 461.99 293.491V388.331C461.99 448.691 412.89 497.791 352.53 497.791Z" fill="#00C84F"/>
<path d="M25.7808 364.981C11.8708 364.981 0.59082 346.921 0.59082 324.641C0.59082 302.361 11.8708 284.301 25.7808 284.301V364.981Z" fill="#00C84F"/>
<path d="M471.53 364.981C485.44 364.981 496.72 346.921 496.72 324.641C496.72 302.361 485.44 284.301 471.53 284.301V364.981Z" fill="#00C84F"/>
<path d="M248.491 0C230.491 0 215.841 14.65 215.841 32.65C215.841 47.83 226.261 60.62 240.331 64.28V203.37C240.331 208.3 244.321 212.27 249.231 212.27C254.141 212.27 258.131 208.29 258.131 203.37V63.85C271.441 59.72 281.131 47.3 281.131 32.65C281.131 14.65 266.481 0 248.481 0H248.491Z" fill="#00C84F"/>
<path d="M384.461 81.16L349.841 50.96C347.351 48.66 343.761 48.01 340.591 49.31C337.331 50.66 335.221 53.82 335.221 57.37V78.7H303.191C286.331 78.7 272.601 92.43 272.601 109.3V203.36C272.601 208.29 276.591 212.26 281.501 212.26C286.411 212.26 290.401 208.28 290.401 203.36V109.3C290.401 102.25 296.131 96.51 303.181 96.51H335.211V117.29C335.211 120.82 337.321 123.98 340.601 125.33C341.681 125.79 342.811 126 343.941 126C346.091 126 348.201 125.2 349.831 123.7L384.081 93.84L384.451 93.5C386.101 91.85 387.001 89.66 387.001 87.33C387.001 85 386.091 82.82 384.451 81.17L384.461 81.16Z" fill="#00C84F"/>
<path d="M193.051 106.85H184.501C184.381 106.72 184.251 106.57 184.111 106.43L158.821 81.1405C153.691 76.0105 145.331 76.0105 140.191 81.1405L114.901 106.43C109.751 111.56 109.751 119.94 114.901 125.07L140.191 150.36C142.761 152.93 146.131 154.2 149.501 154.2C152.871 154.2 156.251 152.92 158.821 150.36L184.111 125.07C184.241 124.94 184.381 124.79 184.501 124.65H193.051C200.101 124.65 205.831 130.38 205.831 137.43V203.35C205.831 208.28 209.821 212.25 214.731 212.25C219.641 212.25 223.631 208.27 223.631 203.35V137.43C223.631 120.57 209.901 106.84 193.041 106.84L193.051 106.85Z" fill="#00C84F"/>
<path d="M30.05 543.28H0V521.33H85.61V543.28H57.73V619.19H30.05V543.28Z" fill="#00273A"/>
<path d="M302.201 521.33V619.18H274.521V581.02H246.281V619.18H218.601V521.33H246.281V558.09H274.521V521.33H302.201Z" fill="#00273A"/>
<path d="M183.191 618.76L182.911 566.77L158.051 608.48H145.891L121.171 568.15V618.76H95.8906V521.32H118.411L152.391 577.12L185.541 521.32H208.331V618.76H183.191Z" fill="#00273A"/>
<path d="M312.75 574.69V521.73H339.77V573.87C339.77 590.25 346.59 596.8 357.92 596.8C369.25 596.8 375.94 590.25 375.94 573.87V521.73H402.55V574.69C402.55 603.21 385.9 619.18 357.65 619.18C329.4 619.18 312.75 603.21 312.75 574.69Z" fill="#00C84F"/>
<path d="M414.15 608.67L423.02 588.74C431.48 594.34 443.49 598.16 454.55 598.16C465.61 598.16 470.11 595.02 470.11 590.38C470.11 575.23 415.79 586.29 415.79 550.8C415.79 533.74 429.71 519.82 458.1 519.82C470.52 519.82 483.35 522.69 492.77 528.15L484.44 548.21C475.3 543.3 466.29 540.84 457.96 540.84C446.63 540.84 442.54 544.66 442.54 549.44C442.54 564.04 496.72 553.12 496.72 588.34C496.72 604.99 482.8 619.18 454.41 619.18C438.71 619.18 423.16 614.95 414.15 608.67Z" fill="#00C84F"/>
</svg>
